<?xml version="1.0" encoding="UTF-8" standalone="no"?>
<!DOCTYPE svg PUBLIC "-//W3C//DTD SVG 1.1//EN"
 "http://www.w3.org/Graphics/SVG/1.1/DTD/svg11.dtd">
<!-- Generated by graphviz version 2.42.4 (0)
 -->
<!-- Title: G Pages: 1 -->
<svg width="1058pt" height="796pt"
 viewBox="0.00 0.00 1057.60 795.60" xmlns="http://www.w3.org/2000/svg" xmlns:xlink="http://www.w3.org/1999/xlink">
<g id="graph0" class="graph" transform="scale(1 1) rotate(0) translate(28.8 766.8)">
<title>G</title>
<polygon fill="white" stroke="transparent" points="-28.8,28.8 -28.8,-766.8 1028.8,-766.8 1028.8,28.8 -28.8,28.8"/>
<g id="clust1" class="cluster">
<title>cluster_runtime</title>
<path fill="#fafbfd" stroke="#d7dce5" stroke-width="1.2" stroke-dasharray="5,2" d="M20,-8C20,-8 801,-8 801,-8 807,-8 813,-14 813,-20 813,-20 813,-465 813,-465 813,-471 807,-477 801,-477 801,-477 20,-477 20,-477 14,-477 8,-471 8,-465 8,-465 8,-20 8,-20 8,-14 14,-8 20,-8"/>
<text text-anchor="start" x="121.5" y="-458.4" font-family="Inter,Arial,sans-serif" font-weight="bold" font-size="12.00">GCP Runtime</text>
<text text-anchor="start" x="22" y="-436" font-family="Inter,Arial,sans-serif" font-size="10.00">Same codebase can run locally first with Docker Compose</text>
</g>
<g id="clust5" class="cluster">
<title>cluster_delivery</title>
<path fill="#fafbfd" stroke="#d7dce5" stroke-width="1.2" stroke-dasharray="5,2" d="M382,-508C382,-508 919,-508 919,-508 925,-508 931,-514 931,-520 931,-520 931,-635 931,-635 931,-641 925,-647 919,-647 919,-647 382,-647 382,-647 376,-647 370,-641 370,-635 370,-635 370,-520 370,-520 370,-514 376,-508 382,-508"/>
<text text-anchor="middle" x="449" y="-633.4" font-family="Inter,Arial,sans-serif" font-size="12.00">Delivery and initialization</text>
</g>
<!-- user -->
<g id="node1" class="node">
<title>user</title>
<path fill="#e8f1ff" stroke="#7aa2f7" stroke-width="1.1" d="M254,-597C254,-597 18,-597 18,-597 12,-597 6,-591 6,-585 6,-585 6,-528 6,-528 6,-522 12,-516 18,-516 18,-516 254,-516 254,-516 260,-516 266,-522 266,-528 266,-528 266,-585 266,-585 266,-591 260,-597 254,-597"/>
<text text-anchor="start" x="120" y="-575.7" font-family="Inter,Arial,sans-serif" font-weight="bold" font-size="11.00">Users</text>
<text text-anchor="start" x="22" y="-552.7" font-family="Inter,Arial,sans-serif" font-size="11.00">PMs • architects • engineers • researchers</text>
<text text-anchor="start" x="97.5" y="-531.5" font-family="Inter,Arial,sans-serif" font-size="10.00">Browser access</text>
</g>
<!-- frontend -->
<g id="node2" class="node">
<title>frontend</title>
<path fill="#eee9ff" stroke="#9a7dff" stroke-width="1.1" d="M244,-361C244,-361 28,-361 28,-361 22,-361 16,-355 16,-349 16,-349 16,-292 16,-292 16,-286 22,-280 28,-280 28,-280 244,-280 244,-280 250,-280 256,-286 256,-292 256,-292 256,-349 256,-349 256,-355 250,-361 244,-361"/>
<text text-anchor="start" x="32" y="-339.7" font-family="Inter,Arial,sans-serif" font-weight="bold" font-size="11.00">Cloud Run: quantum&#45;foundry&#45;frontend</text>
<text text-anchor="start" x="110.5" y="-316.7" font-family="Inter,Arial,sans-serif" font-size="11.00">Next.js UI</text>
<text text-anchor="start" x="34.5" y="-295.5" font-family="Inter,Arial,sans-serif" font-size="10.00">Learn → Explore → Assess → Build → Map</text>
</g>
<!-- user&#45;&gt;frontend -->
<g id="edge1" class="edge">
<title>user&#45;&gt;frontend</title>
<path fill="none" stroke="#6b7280" stroke-width="1.1" d="M136,-515.81C136,-475.38 136,-412.67 136,-369.49"/>
<polygon fill="#6b7280" stroke="#6b7280" stroke-width="1.1" points="138.8,-369.39 136,-361.39 133.2,-369.39 138.8,-369.39"/>
<text text-anchor="middle" x="153.5" y="-488" font-family="Inter,Arial,sans-serif" font-size="10.00">HTTPS</text>
</g>
<!-- api -->
<g id="node3" class="node">
<title>api</title>
<path fill="#eee9ff" stroke="#9a7dff" stroke-width="1.1" d="M708,-361C708,-361 364,-361 364,-361 358,-361 352,-355 352,-349 352,-349 352,-292 352,-292 352,-286 358,-280 364,-280 364,-280 708,-280 708,-280 714,-280 720,-286 720,-292 720,-292 720,-349 720,-349 720,-355 714,-361 708,-361"/>
<text text-anchor="start" x="432" y="-339.7" font-family="Inter,Arial,sans-serif" font-weight="bold" font-size="11.00">Cloud Run: quantum&#45;foundry&#45;backend</text>
<text text-anchor="start" x="484.5" y="-316.7" font-family="Inter,Arial,sans-serif" font-size="11.00">FastAPI product API</text>
<text text-anchor="start" x="368" y="-295.5" font-family="Inter,Arial,sans-serif" font-size="10.00">projects • sessions • assessments • circuits • architectures • artifacts</text>
</g>
<!-- frontend&#45;&gt;api -->
<g id="edge2" class="edge">
<title>frontend&#45;&gt;api</title>
<path fill="none" stroke="#6b7280" stroke-width="1.1" d="M256.01,-320.5C283.69,-320.5 313.81,-320.5 343.7,-320.5"/>
<polygon fill="#6b7280" stroke="#6b7280" stroke-width="1.1" points="343.7,-323.3 351.7,-320.5 343.7,-317.7 343.7,-323.3"/>
<text text-anchor="middle" x="304" y="-326.5" font-family="Inter,Arial,sans-serif" font-size="10.00">REST / JSON</text>
</g>
<!-- tasks -->
<g id="node4" class="node">
<title>tasks</title>
<path fill="#fff3d6" stroke="#f4b740" stroke-width="1.1" d="M124,-218.5C124,-218.5 28,-218.5 28,-218.5 22,-218.5 16,-212.5 16,-206.5 16,-206.5 16,-170.5 16,-170.5 16,-164.5 22,-158.5 28,-158.5 28,-158.5 124,-158.5 124,-158.5 130,-158.5 136,-164.5 136,-170.5 136,-170.5 136,-206.5 136,-206.5 136,-212.5 130,-218.5 124,-218.5"/>
<text text-anchor="start" x="42.5" y="-197.7" font-family="Inter,Arial,sans-serif" font-weight="bold" font-size="11.00">Cloud Tasks</text>
<text text-anchor="start" x="32" y="-174.7" font-family="Inter,Arial,sans-serif" font-size="11.00">async job queue</text>
</g>
<!-- api&#45;&gt;tasks -->
<g id="edge5" class="edge">
<title>api&#45;&gt;tasks</title>
<path fill="none" stroke="#6b7280" stroke-width="1.1" d="M351.77,-291.64C325.02,-287.68 297.8,-283.7 272,-280 207.17,-270.71 182.01,-293.96 126,-260 112.58,-251.86 101.77,-238.6 93.69,-225.76"/>
<polygon fill="#6b7280" stroke="#6b7280" stroke-width="1.1" points="95.99,-224.14 89.48,-218.71 91.18,-227.01 95.99,-224.14"/>
<text text-anchor="middle" x="158.5" y="-252" font-family="Inter,Arial,sans-serif" font-size="10.00">enqueue jobs</text>
</g>
<!-- core -->
<g id="node6" class="node">
<title>core</title>
<path fill="#f4f6f8" stroke="#b8c0cc" stroke-width="1.1" d="M322.5,-97C322.5,-97 45.5,-97 45.5,-97 39.5,-97 33.5,-91 33.5,-85 33.5,-85 33.5,-28 33.5,-28 33.5,-22 39.5,-16 45.5,-16 45.5,-16 322.5,-16 322.5,-16 328.5,-16 334.5,-22 334.5,-28 334.5,-28 334.5,-85 334.5,-85 334.5,-91 328.5,-97 322.5,-97"/>
<text text-anchor="start" x="95.5" y="-75.7" font-family="Inter,Arial,sans-serif" font-weight="bold" font-size="11.00">foundry&#45;core + quantum libraries</text>
<text text-anchor="start" x="50" y="-52.7" font-family="Inter,Arial,sans-serif" font-size="11.00">QALS&#45;lite • circuit templates • architecture mapper</text>
<text text-anchor="start" x="54" y="-31.5" font-family="Inter,Arial,sans-serif" font-size="10.00">Cirq • OpenFermion • qsim • simulation&#45;first execution</text>
</g>
<!-- api&#45;&gt;core -->
<g id="edge9" class="edge">
<title>api&#45;&gt;core</title>
<path fill="none" stroke="#9ca3af" stroke-width="1.1" stroke-dasharray="5,2" d="M351.9,-293.57C288.5,-282.98 230.6,-270.71 220,-260 180.07,-219.66 175.85,-151.34 178.38,-105.35"/>
<polygon fill="#9ca3af" stroke="#9ca3af" stroke-width="1.1" points="181.18,-105.48 178.91,-97.31 175.59,-105.11 181.18,-105.48"/>
<text text-anchor="middle" x="221.5" y="-186" font-family="Inter,Arial,sans-serif" font-size="10.00">sync logic</text>
</g>
<!-- db -->
<g id="node7" class="node">
<title>db</title>
<path fill="#e7f8ee" stroke="#52b788" stroke-width="1.1" d="M541,-86.5C541,-86.5 379,-86.5 379,-86.5 373,-86.5 367,-80.5 367,-74.5 367,-74.5 367,-38.5 367,-38.5 367,-32.5 373,-26.5 379,-26.5 379,-26.5 541,-26.5 541,-26.5 547,-26.5 553,-32.5 553,-38.5 553,-38.5 553,-74.5 553,-74.5 553,-80.5 547,-86.5 541,-86.5"/>
<text text-anchor="start" x="432" y="-65.7" font-family="Inter,Arial,sans-serif" font-weight="bold" font-size="11.00">Cloud SQL</text>
<text text-anchor="start" x="383" y="-42.7" font-family="Inter,Arial,sans-serif" font-size="11.00">PostgreSQL system of record</text>
</g>
<!-- api&#45;&gt;db -->
<g id="edge3" class="edge">
<title>api&#45;&gt;db</title>
<path fill="none" stroke="#6b7280" stroke-width="1.1" d="M394.27,-279.87C371.56,-267.26 350.97,-250.7 337,-229 317.51,-198.73 320.75,-180.13 337,-148 348.93,-124.41 370.23,-105.47 391.78,-91.13"/>
<polygon fill="#6b7280" stroke="#6b7280" stroke-width="1.1" points="393.56,-93.32 398.78,-86.64 390.53,-88.6 393.56,-93.32"/>
<text text-anchor="middle" x="361.5" y="-186" font-family="Inter,Arial,sans-serif" font-size="10.00">read/write</text>
</g>
<!-- gcs -->
<g id="node8" class="node">
<title>gcs</title>
<path fill="#e7f8ee" stroke="#52b788" stroke-width="1.1" d="M793,-86.5C793,-86.5 597,-86.5 597,-86.5 591,-86.5 585,-80.5 585,-74.5 585,-74.5 585,-38.5 585,-38.5 585,-32.5 591,-26.5 597,-26.5 597,-26.5 793,-26.5 793,-26.5 799,-26.5 805,-32.5 805,-38.5 805,-38.5 805,-74.5 805,-74.5 805,-80.5 799,-86.5 793,-86.5"/>
<text text-anchor="start" x="656.5" y="-65.7" font-family="Inter,Arial,sans-serif" font-weight="bold" font-size="11.00">Cloud Storage</text>
<text text-anchor="start" x="601" y="-42.7" font-family="Inter,Arial,sans-serif" font-size="11.00">exports • diagrams • JSON artifacts</text>
</g>
<!-- api&#45;&gt;gcs -->
<g id="edge4" class="edge">
<title>api&#45;&gt;gcs</title>
<path fill="none" stroke="#6b7280" stroke-width="1.1" d="M483.16,-279.91C467.73,-265.6 452.48,-248.19 443,-229 420.84,-184.11 398.24,-154.85 431,-117 451.28,-93.57 538.79,-103.88 569,-97 579.43,-94.62 590.25,-91.8 600.96,-88.78"/>
<polygon fill="#6b7280" stroke="#6b7280" stroke-width="1.1" points="601.82,-91.44 608.74,-86.54 600.28,-86.06 601.82,-91.44"/>
<text text-anchor="middle" x="501" y="-186" font-family="Inter,Arial,sans-serif" font-size="10.00">artifact metadata + fetch</text>
</g>
<!-- worker -->
<g id="node5" class="node">
<title>worker</title>
<path fill="#fff3d6" stroke="#f4b740" stroke-width="1.1" d="M793.5,-229C793.5,-229 586.5,-229 586.5,-229 580.5,-229 574.5,-223 574.5,-217 574.5,-217 574.5,-160 574.5,-160 574.5,-154 580.5,-148 586.5,-148 586.5,-148 793.5,-148 793.5,-148 799.5,-148 805.5,-154 805.5,-160 805.5,-160 805.5,-217 805.5,-217 805.5,-223 799.5,-229 793.5,-229"/>
<text text-anchor="start" x="591" y="-207.7" font-family="Inter,Arial,sans-serif" font-weight="bold" font-size="11.00">Cloud Run: quantum&#45;foundry&#45;worker</text>
<text text-anchor="start" x="630.5" y="-184.7" font-family="Inter,Arial,sans-serif" font-size="11.00">private worker service</text>
<text text-anchor="start" x="595.5" y="-163.5" font-family="Inter,Arial,sans-serif" font-size="10.00">simulation • exports • long&#45;running jobs</text>
</g>
<!-- tasks&#45;&gt;worker -->
<g id="edge6" class="edge">
<title>tasks&#45;&gt;worker</title>
<path fill="none" stroke="#6b7280" stroke-width="1.1" d="M133.04,-218.61C160.83,-231.33 195.25,-244.28 228,-249 309.76,-260.77 410.78,-254.13 550,-229 555.35,-228.03 560.8,-226.94 566.27,-225.76"/>
<polygon fill="#6b7280" stroke="#6b7280" stroke-width="1.1" points="567.12,-228.44 574.32,-223.96 565.9,-222.97 567.12,-228.44"/>
<text text-anchor="middle" x="257" y="-252" font-family="Inter,Arial,sans-serif" font-size="10.00">HTTP target</text>
</g>
<!-- worker&#45;&gt;core -->
<g id="edge10" class="edge">
<title>worker&#45;&gt;core</title>
<path fill="none" stroke="#9ca3af" stroke-width="1.1" stroke-dasharray="5,2" d="M574.37,-154.45C566.13,-152.22 557.95,-150.05 550,-148 512.43,-138.28 502.71,-137.17 465,-128 425.37,-118.37 382.65,-107.76 342.77,-97.77"/>
<polygon fill="#9ca3af" stroke="#9ca3af" stroke-width="1.1" points="343.28,-95.01 334.84,-95.78 341.91,-100.44 343.28,-95.01"/>
<text text-anchor="middle" x="512.5" y="-120" font-family="Inter,Arial,sans-serif" font-size="10.00">simulation + exports</text>
</g>
<!-- worker&#45;&gt;db -->
<g id="edge7" class="edge">
<title>worker&#45;&gt;db</title>
<path fill="none" stroke="#6b7280" stroke-width="1.1" d="M620.06,-147.97C587.63,-129.64 549.53,-108.11 518.64,-90.64"/>
<polygon fill="#6b7280" stroke="#6b7280" stroke-width="1.1" points="519.7,-88.03 511.36,-86.53 516.94,-92.9 519.7,-88.03"/>
<text text-anchor="middle" x="614.5" y="-120" font-family="Inter,Arial,sans-serif" font-size="10.00">persist results</text>
</g>
<!-- worker&#45;&gt;gcs -->
<g id="edge8" class="edge">
<title>worker&#45;&gt;gcs</title>
<path fill="none" stroke="#6b7280" stroke-width="1.1" d="M691.53,-147.79C692.17,-131 692.92,-111.55 693.56,-95.01"/>
<polygon fill="#6b7280" stroke="#6b7280" stroke-width="1.1" points="696.37,-94.76 693.88,-86.65 690.77,-94.54 696.37,-94.76"/>
<text text-anchor="middle" x="724" y="-120" font-family="Inter,Arial,sans-serif" font-size="10.00">write artifacts</text>
</g>
<!-- build -->
<g id="node9" class="node">
<title>build</title>
<path fill="#ffe9de" stroke="#f08a5d" stroke-width="1.1" d="M546,-597C546,-597 390,-597 390,-597 384,-597 378,-591 378,-585 378,-585 378,-528 378,-528 378,-522 384,-516 390,-516 390,-516 546,-516 546,-516 552,-516 558,-522 558,-528 558,-528 558,-585 558,-585 558,-591 552,-597 546,-597"/>
<text text-anchor="start" x="437.5" y="-575.7" font-family="Inter,Arial,sans-serif" font-weight="bold" font-size="11.00">Cloud Build</text>
<text text-anchor="start" x="394" y="-552.7" font-family="Inter,Arial,sans-serif" font-size="11.00">builds and deploys services</text>
<text text-anchor="start" x="431" y="-531.5" font-family="Inter,Arial,sans-serif" font-size="10.00">cloudbuild.yaml</text>
</g>
<!-- ar -->
<g id="node10" class="node">
<title>ar</title>
<path fill="#ffe9de" stroke="#f08a5d" stroke-width="1.1" d="M763,-586.5C763,-586.5 663,-586.5 663,-586.5 657,-586.5 651,-580.5 651,-574.5 651,-574.5 651,-538.5 651,-538.5 651,-532.5 657,-526.5 663,-526.5 663,-526.5 763,-526.5 763,-526.5 769,-526.5 775,-532.5 775,-538.5 775,-538.5 775,-574.5 775,-574.5 775,-580.5 769,-586.5 763,-586.5"/>
<text text-anchor="start" x="669" y="-565.7" font-family="Inter,Arial,sans-serif" font-weight="bold" font-size="11.00">Artifact Registry</text>
<text text-anchor="start" x="667" y="-542.7" font-family="Inter,Arial,sans-serif" font-size="11.00">container images</text>
</g>
<!-- build&#45;&gt;ar -->
<g id="edge11" class="edge">
<title>build&#45;&gt;ar</title>
<path fill="none" stroke="#6b7280" stroke-width="1.1" d="M558.19,-556.5C586.13,-556.5 616.49,-556.5 642.86,-556.5"/>
<polygon fill="#6b7280" stroke="#6b7280" stroke-width="1.1" points="642.91,-559.3 650.91,-556.5 642.91,-553.7 642.91,-559.3"/>
<text text-anchor="middle" x="604.5" y="-562.5" font-family="Inter,Arial,sans-serif" font-size="10.00">push images</text>
</g>
<!-- jobs -->
<g id="node11" class="node">
<title>jobs</title>
<path fill="#ffe9de" stroke="#f08a5d" stroke-width="1.1" d="M911,-586.5C911,-586.5 819,-586.5 819,-586.5 813,-586.5 807,-580.5 807,-574.5 807,-574.5 807,-538.5 807,-538.5 807,-532.5 813,-526.5 819,-526.5 819,-526.5 911,-526.5 911,-526.5 917,-526.5 923,-532.5 923,-538.5 923,-538.5 923,-574.5 923,-574.5 923,-580.5 917,-586.5 911,-586.5"/>
<text text-anchor="start" x="823" y="-565.7" font-family="Inter,Arial,sans-serif" font-weight="bold" font-size="11.00">Cloud Run Jobs</text>
<text text-anchor="start" x="824.5" y="-542.7" font-family="Inter,Arial,sans-serif" font-size="11.00">migrate + seed</text>
</g>
<!-- build&#45;&gt;jobs -->
<g id="edge15" class="edge">
<title>build&#45;&gt;jobs</title>
<path fill="none" stroke="#6b7280" stroke-width="1.1" d="M529.86,-597.07C560.21,-614.6 598.11,-633.11 635,-642 702.4,-658.25 727.94,-670.82 791,-642 812.91,-631.99 830.82,-611.93 843.53,-593.75"/>
<polygon fill="#6b7280" stroke="#6b7280" stroke-width="1.1" points="846.17,-594.85 848.31,-586.65 841.52,-591.72 846.17,-594.85"/>
<text text-anchor="middle" x="682" y="-658" font-family="Inter,Arial,sans-serif" font-size="10.00">deploy/execute</text>
</g>
<!-- ar&#45;&gt;frontend -->
<g id="edge12" class="edge">
<title>ar&#45;&gt;frontend</title>
<path fill="none" stroke="#6b7280" stroke-width="1.1" d="M650.81,-531.28C627.08,-522.83 599.58,-513.97 574,-508 470.12,-483.74 434.45,-518.07 336,-477 275.31,-451.69 217.3,-402.9 179.53,-366.7"/>
<polygon fill="#6b7280" stroke="#6b7280" stroke-width="1.1" points="181.34,-364.56 173.65,-361 177.45,-368.58 181.34,-364.56"/>
<text text-anchor="middle" x="413" y="-488" font-family="Inter,Arial,sans-serif" font-size="10.00">deploy</text>
</g>
<!-- ar&#45;&gt;api -->
<g id="edge13" class="edge">
<title>ar&#45;&gt;api</title>
<path fill="none" stroke="#6b7280" stroke-width="1.1" d="M690.94,-526.34C660.85,-486.55 606.6,-414.84 570.94,-367.7"/>
<polygon fill="#6b7280" stroke="#6b7280" stroke-width="1.1" points="573.1,-365.91 566.04,-361.22 568.63,-369.29 573.1,-365.91"/>
<text text-anchor="middle" x="681" y="-488" font-family="Inter,Arial,sans-serif" font-size="10.00">deploy</text>
</g>
<!-- ar&#45;&gt;worker -->
<g id="edge14" class="edge">
<title>ar&#45;&gt;worker</title>
<path fill="none" stroke="#6b7280" stroke-width="1.1" d="M723.65,-526.49C728.46,-511.87 733.6,-493.73 736,-477 748.44,-390.33 756.4,-365.15 736,-280 732.47,-265.25 726.11,-250.19 719.23,-236.69"/>
<polygon fill="#6b7280" stroke="#6b7280" stroke-width="1.1" points="721.57,-235.14 715.36,-229.37 716.62,-237.75 721.57,-235.14"/>
<text text-anchor="middle" x="764" y="-318" font-family="Inter,Arial,sans-serif" font-size="10.00">deploy</text>
</g>
<!-- jobs&#45;&gt;db -->
<g id="edge16" class="edge">
<title>jobs&#45;&gt;db</title>
<path fill="none" stroke="#6b7280" stroke-width="1.1" d="M865.38,-526.46C865.92,-443.92 863.67,-209.89 822,-148 774.75,-77.82 598.62,-103.78 569,-97 559.56,-94.84 549.81,-92.09 540.21,-89.06"/>
<polygon fill="#6b7280" stroke="#6b7280" stroke-width="1.1" points="541.02,-86.38 532.55,-86.57 539.29,-91.71 541.02,-86.38"/>
<text text-anchor="middle" x="890" y="-252" font-family="Inter,Arial,sans-serif" font-size="10.00">migrate schema</text>
</g>
<!-- jobs&#45;&gt;gcs -->
<g id="edge17" class="edge">
<title>jobs&#45;&gt;gcs</title>
<path fill="none" stroke="#9ca3af" stroke-width="1.1" stroke-dasharray="5,2" d="M881.15,-526.17C909.06,-471.9 961.55,-351.95 942,-249 930.24,-187.05 936.31,-159.79 890,-117 868.61,-97.24 840.83,-84.04 812.98,-75.21"/>
<polygon fill="#9ca3af" stroke="#9ca3af" stroke-width="1.1" points="813.6,-72.48 805.13,-72.84 811.97,-77.84 813.6,-72.48"/>
<text text-anchor="middle" x="971.5" y="-252" font-family="Inter,Arial,sans-serif" font-size="10.00">seed assets</text>
</g>
</g>
</svg>
